<?xml version="1.0" encoding="UTF-8" standalone="no"?><!DOCTYPE svg PUBLIC "-//W3C//DTD SVG 1.1//EN" "http://www.w3.org/Graphics/SVG/1.1/DTD/svg11.dtd"><svg width="100%" height="100%" viewBox="0 0 200 221" version="1.1" xmlns="http://www.w3.org/2000/svg" xmlns:xlink="http://www.w3.org/1999/xlink" xml:space="preserve" xmlns:serif="http://www.serif.com/" style="fill-rule:evenodd;clip-rule:evenodd;stroke-linejoin:round;stroke-miterlimit:2;"><path id="XMLID_68_" d="M0.95,141.347l121.8,78.1l51.1,-57.4l-150.6,-96l-22.3,75.3Z" style="fill:url(#_Linear1);fill-rule:nonzero;"/><path id="XMLID_70_" d="M62.75,51.647l38.2,108.3l80.3,-56.6l-61.5,-102.3l-57,50.6Z" style="fill:url(#_Linear2);fill-rule:nonzero;"/><path id="XMLID_66_" d="M23.25,66.047l158,37.3l-80.3,56.6l-100,-18.6l22.3,-75.3Z" style="fill:url(#_Linear3);fill-rule:nonzero;"/><path id="XMLID_69_" d="M123.35,167.247l75.7,-33.4l-76.3,85.6l0.6,-52.2Z" style="fill:url(#_Linear4);fill-rule:nonzero;"/><path id="XMLID_6_" d="M186.65,59.847l-66.9,-58.8l-57,50.6l124.6,42.2l-0.7,-34Zm-35.4,6c-5.4,0 -9.7,-4.4 -9.7,-9.7c-0,-5.4 4.4,-9.7 9.7,-9.7c5.4,0 9.7,4.4 9.7,9.7c-0,5.4 -4.4,9.7 -9.7,9.7Z" style="fill:url(#_Linear5);fill-rule:nonzero;"/><path id="XMLID_2_" d="M181.25,103.347l-80.3,56.6l-77.7,-93.9l158,37.3Z" style="fill:url(#_Linear6);fill-rule:nonzero;"/><path id="XMLID_1_" d="M0.95,141.347l109.3,46.8l28,-48.8l-4.3,-2.7l-33,23.3l-100,-18.6Z" style="fill:url(#_Linear7);fill-rule:nonzero;"/><path id="XMLID_7_" d="M62.75,51.647l105.9,45.5l0.8,-9.4l-106.7,-36.1Z" style="fill:url(#_Linear8);fill-rule:nonzero;"/><path id="XMLID_29_" d="M156.05,32.847l-36.3,-31.8l-57,50.6l93.3,-18.8Z" style="fill:url(#_Linear9);fill-rule:nonzero;"/><defs><linearGradient id="_Linear1" x1="0" y1="0" x2="1" y2="0" gradientUnits="userSpaceOnUse" gradientTransform="matrix(-158.912,-60.903,60.903,-158.912,155.833,174.519)"><stop offset="0" style="stop-color:#2c3e50;stop-opacity:1"/><stop offset="1" style="stop-color:#2c3e50;stop-opacity:1"/></linearGradient><linearGradient id="_Linear2" x1="0" y1="0" x2="1" y2="0" gradientUnits="userSpaceOnUse" gradientTransform="matrix(-9.06469,53.8711,-53.8711,-9.06469,124.622,62.0494)"><stop offset="0" style="stop-color:#2c3e50;stop-opacity:1"/><stop offset="1" style="stop-color:#2c3e50;stop-opacity:1"/></linearGradient><linearGradient id="_Linear3" x1="0" y1="0" x2="1" y2="0" gradientUnits="userSpaceOnUse" gradientTransform="matrix(134.651,9.3507,-9.3507,134.651,-7.6527,108.151)"><stop offset="0" style="stop-color:#f1c40f;stop-opacity:1"/><stop offset="1" style="stop-color:#ffcf10;stop-opacity:1"/></linearGradient><linearGradient id="_Linear4" x1="0" y1="0" x2="1" y2="0" gradientUnits="userSpaceOnUse" gradientTransform="matrix(136.868,-120.204,120.204,136.868,42.1011,264.434)"><stop offset="0" style="stop-color:#f1c40f;stop-opacity:1"/><stop offset="1" style="stop-color:#ffcf10;stop-opacity:1"/></linearGradient><linearGradient id="_Linear5" x1="0" y1="0" x2="1" y2="0" gradientUnits="userSpaceOnUse" gradientTransform="matrix(108.5,65,-65,108.5,55.6231,4.99145)"><stop offset="0" style="stop-color:#ffcf10;stop-opacity:1"/><stop offset="1" style="stop-color:#f1c40f;stop-opacity:1"/></linearGradient><linearGradient id="_Linear6" x1="0" y1="0" x2="1" y2="0" gradientUnits="userSpaceOnUse" gradientTransform="matrix(-107.5,-70,70,-107.5,139.527,130.591)"><stop offset="0" style="stop-color:#ffd633;stop-opacity:0"/><stop offset="1" style="stop-color:#ffd633;stop-opacity:1"/><stop offset="1" style="stop-color:#ffd633;stop-opacity:1"/></linearGradient><linearGradient id="_Linear7" x1="0" y1="0" x2="1" y2="0" gradientUnits="userSpaceOnUse" gradientTransform="matrix(-140.5,-56.5,56.5,-140.5,135.763,167.884)"><stop offset="0" style="stop-color:#34495e;stop-opacity:0"/><stop offset="1" style="stop-color:#0b1014;stop-opacity:1"/></linearGradient><linearGradient id="_Linear8" x1="0" y1="0" x2="1" y2="0" gradientUnits="userSpaceOnUse" gradientTransform="matrix(-127.719,-51.3603,51.3603,-127.719,177.304,95.7759)"><stop offset="0" style="stop-color:#34495e;stop-opacity:0"/><stop offset="1" style="stop-color:#0b1014;stop-opacity:1"/></linearGradient><linearGradient id="_Linear9" x1="0" y1="0" x2="1" y2="0" gradientUnits="userSpaceOnUse" gradientTransform="matrix(77.5272,-9.5381,9.5381,77.5272,68.7023,29.1437)"><stop offset="0" style="stop-color:#ffd633;stop-opacity:0"/><stop offset="1" style="stop-color:#ffd633;stop-opacity:1"/><stop offset="1" style="stop-color:#ffd633;stop-opacity:1"/></linearGradient></defs></svg>